# xmcd
#
# Track frame offsets: 
#        150
#        15626
#        29017
#        44400
#        65584
#        81748
#        94733
#        108294
#        123820
#        141013
#        159294
#        177346
#
# Disc length: 2525 seconds
#
# Revision: 0
# Processed by: cddbd v1.5.2PL0 Copyright (c) Steve Scherf et al.
# Submitted via: ExactAudioCopyFreeDBPlugin 1.0
#
DISCID=9e09db0c
DTITLE=Rupert Blackman - The Lights of Home
DYEAR=2013
DGENRE=Rock
TTITLE0=If You Only Knew
TTITLE1=The Strength of Us
TTITLE2=Night and Day
TTITLE3=Heart Don't Fail Me Now
TTITLE4=Run Away With Me
TTITLE5=The Lights of Home
TTITLE6=Don't Be a Stranger
TTITLE7=Keep on Walking
TTITLE8=Win
TTITLE9=Your Photograph
TTITLE10=How Did It Ever Come to This
TTITLE11=Desert Island Girl
EXTD=
EXTT0=
EXTT1=
EXTT2=
EXTT3=
EXTT4=
EXTT5=
EXTT6=
EXTT7=
EXTT8=
EXTT9=
EXTT10=
EXTT11=
PLAYORDER=
